# xmcd
#
# Track frame offsets:
#	150
#	10366
#	21257
#	30912
#	43874
#	56006
#	66815
#	79675
#	97424
#	110127
#	127433
#	139659
#	150256
#	159728
#
# Disc length: 2295 seconds
#
# Revision: 1
# Processed by: cddbd v1.5.2PL0 Copyright (c) Steve Scherf et al.
# Submitted via: audiograbber 1.83.01
#
DISCID=c208f50e
DTITLE=Johnny Cash - The Greatest Gospel Songs
DYEAR=2012
DGENRE=Gospel
TTITLE0=I Was There When It Happened
TTITLE1=Belshazzar
TTITLE2=The Great Speckle Bird
TTITLE3=Suppertime
TTITLE4=That's Enough
TTITLE5=The Old Account
TTITLE6=He Turned The Water Into Wine
TTITLE7=Were You There
TTITLE8=Peace In The Valley
TTITLE9=Troublesome Waters
TTITLE10=Far Side Banks Of Jordan
TTITLE11=Daddy Sang Bass
TTITLE12=Amen
TTITLE13=The Masterpiece
EXTD=
EXTT0=
EXTT1=
EXTT2=
EXTT3=
EXTT4=
EXTT5=
EXTT6=
EXTT7=
EXTT8=
EXTT9=
EXTT10=
EXTT11=
EXTT12=
EXTT13=
PLAYORDER=
